<?xml version="1.0" standalone="no"?><!DOCTYPE svg PUBLIC "-//W3C//DTD SVG 1.1//EN" "http://www.w3.org/Graphics/SVG/1.1/DTD/svg11.dtd"><svg t="1590139971820" class="icon" viewBox="0 0 1024 1024" version="1.1" xmlns="http://www.w3.org/2000/svg" p-id="2096" xmlns:xlink="http://www.w3.org/1999/xlink" width="40" height="40"><defs><style type="text/css"></style></defs><path d="M486.400013 1023.999488A434.585383 434.585383 0 0 1 218.265747 246.886277a57.497571 57.497571 0 0 1 33.126383-10.239995 44.031978 44.031978 0 0 1 37.427182 18.073591 45.311977 45.311977 0 0 1-5.836797 57.139171A344.371028 344.371028 0 1 0 831.12944 588.799706a342.271829 342.271829 0 0 0-140.799929-276.991862 48.179176 48.179176 0 0 1-2.559999-65.331167 44.236778 44.236778 0 0 1 32.307184-13.363194 52.019174 52.019174 0 0 1 35.020782 13.977593A434.585383 434.585383 0 0 1 486.400013 1023.999488z m4.095998-455.167772a61.439969 61.439969 0 0 1-61.43997-61.43997V61.439969a61.439969 61.439969 0 0 1 122.879939 0v446.105377a61.439969 61.439969 0 0 1-61.337569 61.28637z" fill="#2c2c2c" fill-opacity="0.85" p-id="2097"></path></svg>