<?xml version="1.0" standalone="no"?><!DOCTYPE svg PUBLIC "-//W3C//DTD SVG 1.1//EN" "http://www.w3.org/Graphics/SVG/1.1/DTD/svg11.dtd"><svg t="1590139218575" class="icon" viewBox="0 0 1024 1024" version="1.1" xmlns="http://www.w3.org/2000/svg" p-id="2950" xmlns:xlink="http://www.w3.org/1999/xlink" width="40" height="40"><defs><style type="text/css"></style></defs><path d="M646.981818 363.054545l-214.109091 214.109091c-27.927273 27.927273-27.927273 74.472727 4.654546 107.054546 27.927273 27.927273 79.127273 23.272727 111.709091-4.654546 9.309091-9.309091 13.963636-18.618182 18.618181-23.272727l111.709091-279.272727c4.654545-4.654545 0-13.963636-4.654545-18.618182-13.963636 0-23.272727 0-27.927273 4.654545z" fill="#ffffff" p-id="2951"></path><path d="M204.8 912.290909c-9.309091 0-18.618182-4.654545-23.272727-9.309091C0 721.454545 0 428.218182 181.527273 246.690909 269.963636 158.254545 386.327273 111.709091 512 111.709091s242.036364 46.545455 330.472727 134.981818C930.909091 335.127273 977.454545 446.836364 977.454545 577.163636s-46.545455 242.036364-134.981818 330.472728c-13.963636 13.963636-32.581818 13.963636-46.545454 0s-13.963636-32.581818 0-46.545455c69.818182-69.818182 116.363636-176.872727 116.363636-283.927273 0-111.709091-41.890909-204.8-116.363636-283.927272-74.472727-74.472727-176.872727-116.363636-283.927273-116.363637s-209.454545 37.236364-283.927273 116.363637c-153.6 153.6-153.6 409.6 4.654546 563.2 13.963636 13.963636 13.963636 32.581818 0 46.545454-9.309091 4.654545-18.618182 9.309091-27.927273 9.309091z" fill="#ffffff" p-id="2952"></path></svg>